<?xml version="1.0" encoding="utf-8"?>
<!-- Generator: Adobe Illustrator 25.1.0, SVG Export Plug-In . SVG Version: 6.00 Build 0)  -->
<svg version="1.1" xmlns="http://www.w3.org/2000/svg" xmlns:xlink="http://www.w3.org/1999/xlink" x="0px" y="0px"
	 viewBox="0 0 532.37 405.94" style="enable-background:new 0 0 532.37 405.94;" xml:space="preserve">
<style type="text/css">
	.st0{fill:#EBEBEB;}
	.st1{display:none;}
	.st2{display:inline;fill:#F5F5F5;}
	.st3{fill:#E0E0E0;}
	.st4{fill:#263238;}
	.st5{fill:none;stroke:#FFFFFF;stroke-width:0.05;stroke-miterlimit:10;}
	.st6{fill:#700BB9;}
	.st7{fill:#FAFAFA;}
	.st8{opacity:0.2;}
	.st9{fill:#FABAA0;}
	.st10{fill:#455A64;}
	.st11{fill:#F7986E;}
	.st12{fill:#417FE0;}
	.st13{fill:#E9CA39;}
	.st14{fill:#3CB371;}
	.st15{fill:#FFFFFF;}
</style>
<g id="Background_Complete">
	<g>
		<g>
			<path class="st0" d="M306.92,367c4.86-2.04,8.31-7.05,8.34-12.95c0.03-7.73-5.82-14.03-13.07-14.06
				c-7.25-0.03-13.16,6.21-13.19,13.94c-0.02,5.96,3.46,11.03,8.37,13.07c-20.21,3.04-19.29,25.01-19.29,25.01l47.78,0.22
				C325.86,392.22,326.95,370.02,306.92,367z"/>
		</g>
	</g>
	<g>
		<g>
			<path class="st0" d="M28.06,82.78c3.65-1.53,6.24-5.29,6.26-9.72c0.02-5.8-4.37-10.53-9.81-10.55c-5.44-0.03-9.87,4.66-9.9,10.46
				c-0.02,4.47,2.59,8.28,6.28,9.81C5.73,85.07,6.41,101.55,6.41,101.55l35.85,0.17C42.27,101.71,43.09,85.05,28.06,82.78z"/>
		</g>
	</g>
</g>
<g id="Background_Simple" class="st1">
	<path class="st2" d="M428.93,77.02l-2.74-4.46c-22.03-35.85-61.71-57.57-103.73-55.43c-5.91,0.3-11.79,1.06-17.59,2.28
		c-38.65,8.17-72.29,37.03-86.23,74c-8.2,21.74-10.49,46.77-26.05,64.03c-20.25,22.46-54.63,23.16-84.85,22.23
		c-30.23-0.93-64.63-0.14-84.78,22.41c-12.62,14.12-16.63,34.2-15.61,53.11c2.69,50.07,38.03,94.84,82.96,117.09
		c44.93,22.25,97.83,24.25,147.01,14.46c68.89-13.71,134.4-51.37,173.78-109.54C450.47,219.04,460.44,139.8,428.93,77.02z"/>
</g>
<g id="Character_3">
</g>
<g id="Character_2">
</g>
<g id="Character_1">
	<g>
		<g>
			<g>
				<path class="st3" d="M327.57,205.93l-62.66-31.08c-21.01-45.8-67.23-77.62-120.92-77.62c-73.46,0-133,59.55-133,133
					s59.55,133,133,133c71.6,0,129.96-56.59,132.87-127.48L327.57,205.93z"/>
			</g>
		</g>
		<g>
			<g>
				<g>
					<g>
						<path class="st4" d="M264.24,85.57c0,1.91-1.55,3.46-3.46,3.46c-1.91,0-3.46-1.55-3.46-3.46c0-1.91,1.55-3.46,3.46-3.46
							C262.69,82.11,264.24,83.66,264.24,85.57z"/>
					</g>
				</g>
				<g>
					<g>
						<path class="st4" d="M278.07,85.57c0,1.91-1.55,3.46-3.46,3.46c-1.91,0-3.46-1.55-3.46-3.46c0-1.91,1.55-3.46,3.46-3.46
							C276.52,82.11,278.07,83.66,278.07,85.57z"/>
					</g>
				</g>
				<g>
					<g>
						<path class="st4" d="M291.86,83.84c0.95,1.65,0.39,3.77-1.26,4.72c-1.65,0.95-3.77,0.39-4.72-1.26
							c-0.95-1.65-0.39-3.77,1.26-4.72C288.79,81.62,290.91,82.19,291.86,83.84z"/>
					</g>
				</g>
			</g>
			<g>
				<g>
					<g>
						<path class="st4" d="M274.83,45.21c0-0.02,0.24-0.02,0.7-0.01c0.51,0.01,1.19,0.03,2.05,0.06c0.45,0.02,0.96,0.02,1.51,0.07
							c0.56,0.08,1.16,0.16,1.81,0.25c0.66,0.09,1.36,0.2,2.11,0.3c0.74,0.18,1.53,0.38,2.36,0.59c3.32,0.85,7.34,2.31,11.45,4.99
							c4.11,2.64,8.37,6.41,11.84,11.53c3.4,5.13,6.02,11.58,6.72,18.83c0.07,1.81,0.29,3.66,0.11,5.53
							c-0.07,0.94-0.05,1.89-0.18,2.83c-0.14,0.94-0.29,1.89-0.43,2.85c-0.77,3.78-1.9,7.66-3.85,11.26
							c-1.9,3.62-4.36,7.06-7.36,10.12c-3.06,3-6.63,5.61-10.6,7.61c-3.96,2.02-8.35,3.42-12.92,3.97
							c-1.13,0.22-2.29,0.22-3.45,0.29c-1.16,0.08-2.32,0.12-3.48,0.06c-2.33-0.09-4.67-0.39-6.98-0.88
							c-5.02-1.07-9.74-3.11-13.89-5.85l0.42,0.04c-4.81,1.93-9.54,3.83-14.15,5.68l-0.84,0.34l0.24-0.87
							c1.43-5.19,2.82-10.24,4.16-15.13l0.07,0.37c-3.97-5.28-6.5-11.3-7.55-17.28c-0.53-2.99-0.75-5.97-0.55-8.86
							c0.06-1.44,0.13-2.87,0.4-4.25c0.11-0.69,0.21-1.38,0.32-2.07c0.13-0.68,0.33-1.34,0.49-2c2.73-10.65,9.29-18.51,15.79-23.01
							c3.25-2.29,6.46-3.93,9.39-4.96c0.73-0.26,1.44-0.51,2.12-0.76c0.7-0.18,1.37-0.35,2.01-0.51c0.64-0.16,1.25-0.31,1.84-0.46
							c0.59-0.11,1.16-0.17,1.69-0.26c1.07-0.14,2.01-0.32,2.83-0.36c0.81-0.03,1.5-0.05,2.08-0.07c0.53-0.01,0.94-0.02,1.27-0.03
							C274.68,45.19,274.83,45.19,274.83,45.21s-0.14,0.03-0.43,0.06c-0.32,0.03-0.74,0.06-1.26,0.1c-0.57,0.04-1.26,0.09-2.07,0.14
							c-0.82,0.06-1.75,0.27-2.81,0.43c-4.16,0.76-10.41,2.42-16.78,7.09c-6.37,4.5-12.76,12.29-15.39,22.76
							c-0.15,0.65-0.36,1.3-0.48,1.97c-0.1,0.67-0.2,1.35-0.3,2.03c-0.26,1.36-0.32,2.76-0.37,4.18c-0.18,2.83,0.05,5.75,0.57,8.68
							c1.05,5.86,3.55,11.75,7.45,16.91l0.13,0.17l-0.06,0.21c-1.33,4.89-2.71,9.94-4.13,15.13l-0.6-0.53
							c4.61-1.86,9.33-3.76,14.14-5.69l0.22-0.09l0.2,0.13c4.06,2.67,8.68,4.66,13.58,5.71c2.26,0.48,4.54,0.77,6.82,0.86
							c1.14,0.05,2.28,0.01,3.41-0.06c1.13-0.07,2.26-0.06,3.37-0.28c4.47-0.53,8.76-1.89,12.63-3.86c3.89-1.96,7.38-4.5,10.38-7.43
							c2.94-2.99,5.35-6.36,7.23-9.89c1.92-3.53,3.03-7.32,3.8-11.02c0.14-0.94,0.29-1.87,0.43-2.79c0.14-0.92,0.12-1.86,0.19-2.78
							c0.18-1.84-0.03-3.65-0.09-5.43c-0.65-7.12-3.19-13.47-6.5-18.54c-3.37-5.06-7.55-8.82-11.58-11.46
							c-4.03-2.69-7.99-4.18-11.26-5.08c-0.82-0.22-1.6-0.43-2.33-0.62c-0.74-0.12-1.44-0.24-2.09-0.34
							c-0.65-0.11-1.24-0.21-1.79-0.3c-0.55-0.06-1.05-0.08-1.5-0.11c-0.86-0.06-1.54-0.11-2.04-0.15
							C275.06,45.25,274.83,45.22,274.83,45.21z"/>
					</g>
				</g>
			</g>
		</g>
		<g>
			<g>
				<g>
					<path class="st4" d="M224.55,216.06c0.25,0,0.26,12.49,0.02,27.89c-0.24,15.41-0.64,27.89-0.89,27.88
						c-0.25,0-0.26-12.49-0.02-27.9C223.9,228.54,224.3,216.06,224.55,216.06z"/>
				</g>
			</g>
		</g>
		<g>
			<g>
				<g>
					<g>
						<path class="st4" d="M173.3,150.03c0.03,0,0.01,0.32-0.05,0.92c-0.05,0.61-0.2,1.49-0.44,2.61c-0.5,2.24-1.57,5.46-3.71,9.01
							c-2.17,3.51-5.48,7.34-10.17,10.24c-4.65,2.93-10.7,4.65-17.04,4.49c-6.34-0.2-12.29-2.25-16.77-5.44
							c-4.51-3.16-7.61-7.18-9.57-10.8c-1.94-3.66-2.82-6.93-3.19-9.2c-0.18-1.14-0.28-2.03-0.29-2.63c-0.03-0.6-0.03-0.92,0-0.92
							c0.1-0.01,0.17,1.26,0.65,3.49c0.47,2.22,1.44,5.41,3.41,8.96c2,3.51,5.07,7.39,9.48,10.42c4.37,3.06,10.14,5.03,16.31,5.22
							c6.16,0.15,12.04-1.48,16.57-4.29c4.58-2.78,7.87-6.47,10.06-9.87c2.17-3.43,3.32-6.56,3.91-8.75
							C173.06,151.28,173.2,150.01,173.3,150.03z"/>
					</g>
				</g>
			</g>
			<g>
				<g>
					<g>
						<path class="st4" d="M65.68,219.82c0.25,0,0.46,12.18,0.47,27.2c0.01,15.03-0.19,27.2-0.45,27.2c-0.25,0-0.46-12.18-0.47-27.2
							C65.23,232,65.43,219.82,65.68,219.82z"/>
					</g>
				</g>
			</g>
			<g>
				<g>
					<g>
						<path class="st5" d="M65.5,341.44"/>
					</g>
				</g>
			</g>
			<g>
				<g>
					<g>
						<path class="st6" d="M117.73,145.15l52.36,0.02c0,0,47.34,16.82,62.73,28.62c15.39,11.8,38.99,94.91,38.99,94.91l-47.28-1.4
							l-3.55,71.39c-48.43,34.49-106.54,31.97-151.44,1.77l-3.5-67.58c0,0-26.07-0.77-39.39-1.16s-13.93-4.05-13.93-4.05
							s30.27-79.52,39.5-94.91C60.28,159.35,107.08,147.37,117.73,145.15"/>
					</g>
				</g>
				<g>
					<g>
						<g>
							<path class="st7" d="M243.69,192.82c0,0-0.59,0.47-1.87,1.09c-1.27,0.63-3.28,1.37-5.98,1.65c-2.69,0.3-6.06,0.13-9.79-0.79
								c-3.76-0.86-7.82-2.57-12.16-4.64c-4.35-2.03-9.05-4.48-14.48-5.92c-5.41-1.46-11.55-1.38-17.65,0.22
								c-6.12,1.56-12.18,4.4-18.23,7.71c-6.04,3.33-12.18,7.1-18.92,10.11c-6.71,3-13.9,4.99-20.93,4.63
								c-7.03-0.3-13.53-2.45-19.38-4.96c-5.87-2.52-11.17-5.48-16.21-8.02c-5.03-2.56-9.81-4.76-14.37-6.24
								c-9.11-3.04-17.15-2.83-22.3-1.48c-2.59,0.65-4.52,1.48-5.78,2.11c-0.64,0.3-1.09,0.59-1.42,0.75
								c-0.32,0.17-0.49,0.25-0.5,0.24c-0.01-0.01,0.14-0.12,0.45-0.32c0.31-0.19,0.75-0.51,1.38-0.84
								c1.24-0.69,3.16-1.58,5.77-2.29c5.19-1.48,13.35-1.79,22.59,1.21c4.61,1.46,9.45,3.64,14.51,6.18
								c5.07,2.52,10.37,5.44,16.2,7.92c5.81,2.47,12.22,4.56,19.08,4.84c6.86,0.33,13.88-1.61,20.52-4.57
								c6.67-2.98,12.78-6.73,18.86-10.06c6.08-3.32,12.22-6.18,18.45-7.74c6.21-1.61,12.53-1.66,18.05-0.13
								c5.53,1.51,10.23,4.01,14.56,6.07c4.31,2.11,8.3,3.83,12,4.73c3.68,0.95,6.98,1.17,9.64,0.93c2.66-0.22,4.66-0.9,5.94-1.47
								C243.03,193.18,243.66,192.78,243.69,192.82z"/>
						</g>
					</g>
				</g>
				<g>
					<g>
						<g>
							<path class="st7" d="M260.88,232.65c-0.03,0.06-0.75-0.45-2.25-1.12c-1.5-0.66-3.8-1.53-6.9-1.88
								c-3.09-0.39-6.97-0.23-11.27,0.83c-4.31,1.05-8.96,3.15-13.8,5.94c-4.87,2.77-9.91,6.3-15.71,9.53
								c-5.76,3.16-12.48,6.2-20.07,6.36c-7.58,0.28-15.23-2.37-22.59-5.63c-7.4-3.23-14.86-7.16-23.16-9.07
								c-8.31-1.86-16.77-1.38-24.68-0.03c-7.94,1.33-15.43,3.5-22.61,5.39c-7.18,1.91-14.08,3.56-20.67,4.33
								c-6.58,0.78-12.84,0.74-18.4-0.35c-11.17-2.18-18.99-7.97-22.86-12.9c-2.03-2.44-3.05-4.7-3.77-6.19
								c-0.27-0.74-0.49-1.33-0.65-1.77c-0.14-0.4-0.21-0.61-0.19-0.61c0.17-0.1,0.9,3.48,4.89,8.34
								c3.9,4.79,11.67,10.41,22.7,12.48c5.48,1.03,11.67,1.04,18.18,0.23c6.53-0.8,13.38-2.47,20.54-4.4
								c7.16-1.91,14.67-4.11,22.68-5.46c7.97-1.37,16.55-1.88,25.03,0.03c8.46,1.96,15.96,5.92,23.32,9.14
								c7.32,3.26,14.83,5.86,22.2,5.61c7.38-0.13,14-3.08,19.73-6.18c5.76-3.17,10.84-6.68,15.75-9.43c4.89-2.78,9.61-4.86,14-5.88
								c4.37-1.03,8.31-1.14,11.43-0.69c3.14,0.41,5.46,1.34,6.94,2.07C260.19,232.1,260.88,232.65,260.88,232.65z"/>
						</g>
					</g>
				</g>
				<g>
					<g>
						<g>
							<path class="st7" d="M222.97,298.01c0,0-0.47,0.34-1.5,0.72c-1.02,0.38-2.62,0.77-4.7,0.74c-2.08-0.02-4.62-0.47-7.38-1.53
								c-2.77-1.04-5.69-2.68-8.95-4.35c-3.25-1.69-6.98-3.2-11.24-3.8c-4.23-0.65-8.87-0.55-13.63,0.2
								c-9.61,1.43-19.42,5.86-29.93,9.82c-5.27,1.97-10.56,3.6-15.79,4.59c-5.22,1.02-10.34,1.54-15.23,1.7
								c-9.78,0.27-18.56-1.06-25.71-2.88c-7.17-1.81-12.7-4.16-16.4-5.97c-1.88-0.85-3.25-1.68-4.21-2.19
								c-0.43-0.25-0.78-0.45-1.07-0.61c-0.24-0.14-0.36-0.22-0.35-0.24c0.01-0.01,0.14,0.04,0.39,0.15
								c0.3,0.14,0.67,0.32,1.11,0.53c0.98,0.46,2.38,1.24,4.27,2.03c3.73,1.7,9.27,3.94,16.4,5.66c7.12,1.73,15.83,2.98,25.53,2.67
								c4.84-0.18,9.91-0.71,15.08-1.73c5.18-1,10.4-2.6,15.65-4.57c10.45-3.94,20.36-8.38,30.12-9.79
								c4.84-0.74,9.56-0.81,13.88-0.12c4.34,0.64,8.17,2.24,11.42,3.97c3.26,1.72,6.14,3.39,8.84,4.45
								c2.69,1.08,5.17,1.57,7.2,1.65C220.9,299.25,222.95,297.85,222.97,298.01z"/>
						</g>
					</g>
				</g>
				<g>
					<g>
						<g>
							<path class="st7" d="M221.46,334.97c-0.1,0.09-1.41-1.88-4.65-4.51c-3.23-2.54-8.7-5.71-16.15-6.4
								c-3.69-0.38-7.82,0.01-11.93,1.42c-4.1,1.49-8.11,3.98-11.96,7.06c-3.86,3.07-7.64,6.66-11.84,10.09
								c-4.18,3.41-8.96,6.65-14.55,8.33c-5.58,1.66-11.36,1.75-16.74,1.05c-5.4-0.68-10.47-2.06-15.22-3.51
								c-9.51-2.9-17.77-6.37-24.97-8.39c-7.18-2.08-13.31-2.51-17.43-1.82c-4.13,0.63-6.23,1.74-6.27,1.6
								c-0.01-0.01,0.12-0.08,0.38-0.19c0.31-0.13,0.69-0.29,1.16-0.49c0.51-0.23,1.15-0.46,1.94-0.65
								c0.78-0.23,1.68-0.48,2.73-0.62c4.15-0.81,10.4-0.47,17.66,1.55c7.28,1.96,15.56,5.36,25.04,8.21
								c4.73,1.42,9.76,2.77,15.08,3.43c5.3,0.67,10.94,0.58,16.36-1.04c5.42-1.63,10.09-4.78,14.25-8.15
								c4.17-3.39,7.96-6.97,11.88-10.05c3.9-3.09,8.01-5.62,12.23-7.11c4.25-1.41,8.49-1.77,12.25-1.35
								c7.6,0.79,13.1,4.1,16.31,6.76C220.25,332.94,221.46,334.97,221.46,334.97z"/>
						</g>
					</g>
				</g>
				<g class="st8">
					<g>
						<g>
							<path d="M64.4,328c10.63,0.83,20.1-6.31,27.98-13.48c7.89-7.17,16.14-15.16,26.69-16.67c11.06-1.59,22.3,4.4,33.25,2.21
								c4.93-0.99,9.53-3.6,14.55-3.8c8.28-0.32,15.23,5.83,21.19,11.59c7.75,7.49,15.5,14.98,23.25,22.47
								c2.37,2.29,6.9,5.73,9.87,4.3l0.58-11.59c-3.71-20.85-7.75-42.29-23.81-56.09c-11.92-10.25-28.14-13.77-43.76-15.55
								c-18.92-2.15-39.4-1.91-55.28,8.6c-10.59,7.01-18.07,17.98-22.96,29.7s-7.44,24.26-9.95,36.71"/>
						</g>
					</g>
				</g>
			</g>
			<g>
				<g>
					<g>
						<path class="st9" d="M267.95,268.59c0.46,2.75,8.08,46.79,6.71,55.49c-1.37,8.71-3.67,20.16-13.74,24.28
							c-10.08,4.12-24.74-1.37-32.99-15.58c-8.25-14.2-43.98-64.14-43.98-64.14l-26.57-3.21v-44.44l50.86,32.37l23.37,21.2
							l-1.79-7.11L267.95,268.59z"/>
					</g>
				</g>
				<g>
					<g>
						<path class="st10" d="M171.42,281.67h-45.28c-1.87,0-3.38-1.51-3.38-3.38v-77.54c0-1.87,1.51-3.38,3.38-3.38h45.28
							c1.87,0,3.38,1.51,3.38,3.38v77.54C174.8,280.16,173.29,281.67,171.42,281.67z"/>
					</g>
				</g>
				<g>
					<g>
						<g>
							<path class="st11" d="M205.99,252.24c0.17-0.19,11.22,9.37,24.69,21.34c13.47,11.98,24.25,21.84,24.08,22.03
								c-0.17,0.19-11.22-9.36-24.69-21.34C216.6,262.29,205.82,252.43,205.99,252.24z"/>
						</g>
					</g>
				</g>
				<g>
					<g>
						<g>
							<path class="st9" d="M19.65,271.08c0,0-6.34,54.75-6.34,60.98c0,6.24,5.61,21.2,21.2,22.45
								c15.59,1.25,35.55-33.68,35.55-33.68l32.43-49.27l-14.34-26.82L60.1,272.71L19.65,271.08z"/>
						</g>
					</g>
					<g>
						<g>
							<path class="st9" d="M164.45,230.32l-42-1.16l-34.3,15.59l14.34,26.82l25.1-3.66c0,0,14.68-2.39,15.59-3.29
								c1.69-1.68,3.16-6.89,4.17-11.41c1.03-4.6,0.51-9.41-1.48-13.69l-0.94-0.8c0,0,13.82-2.89,16.12-3.9
								C166.55,232.39,164.45,230.32,164.45,230.32z"/>
						</g>
					</g>
					<g>
						<g>
							<g>
								<path class="st11" d="M88.15,244.75c0.05,0.04-0.54,0.75-1.63,1.99c-1.09,1.24-2.72,3-4.75,5.16
									c-4.06,4.31-9.81,10.12-16.23,16.46c-6.35,6.29-12.09,11.98-16.41,16.27c-2,2-3.66,3.66-4.95,4.95
									c-1.18,1.16-1.85,1.79-1.89,1.74c-0.05-0.04,0.54-0.75,1.63-1.99c1.09-1.24,2.72-3,4.75-5.16
									c4.06-4.31,9.81-10.12,16.23-16.47c6.35-6.29,12.09-11.98,16.41-16.26c2-2,3.66-3.66,4.95-4.95
									C87.43,245.33,88.1,244.71,88.15,244.75z"/>
							</g>
						</g>
					</g>
					<g>
						<g>
							<g>
								<path class="st11" d="M129.53,242.79c-0.17-0.15,3-2.77,7.84-3.71c4.83-0.99,8.76,0.22,8.67,0.43
									c-0.04,0.28-3.88-0.47-8.49,0.47C132.94,240.87,129.68,243.03,129.53,242.79z"/>
							</g>
						</g>
					</g>
					<g>
						<g>
							<g>
								<path class="st11" d="M148.42,247.47c-0.09,0.27-3.37-1.03-7.56-0.62c-4.19,0.35-7.19,2.22-7.32,1.97
									c-0.17-0.15,2.78-2.5,7.24-2.88C145.24,245.51,148.56,247.29,148.42,247.47z"/>
							</g>
						</g>
					</g>
					<g>
						<g>
							<g>
								<path class="st11" d="M145.77,255.2c-0.1,0.11-0.56-0.2-1.35-0.49c-0.79-0.29-1.94-0.5-3.21-0.34
									c-1.26,0.18-2.32,0.68-3,1.17c-0.69,0.49-1.05,0.91-1.17,0.83c-0.09-0.05,0.09-0.63,0.75-1.32c0.65-0.69,1.85-1.39,3.3-1.59
									c1.45-0.19,2.79,0.17,3.61,0.66C145.52,254.62,145.85,255.13,145.77,255.2z"/>
							</g>
						</g>
					</g>
				</g>
			</g>
			<g>
				<g>
					<g>
						<g>
							<g>
								<g>
									<g>
										<g>
											<g>
												<g>
													<g>
														<path class="st9" d="M145.46,171.51L145.46,171.51c13.92-0.8,24.76-12.4,24.63-26.34
															c-0.08-8.38-0.17-15.56-0.17-15.56s21.24-3.3,21.5-24.54c0.26-21.23-3.42-69.99-3.42-69.99l0,0
															c-24.58-10.56-52.95-7-74.15,9.32l-3.15,2.42l7.18,100.45C118.9,161.54,131.19,172.33,145.46,171.51z"/>
													</g>
												</g>
											</g>
										</g>
									</g>
								</g>
								<g>
									<g>
										<g>
											<g>
												<g>
													<g>
														<path class="st11" d="M169.96,129.31c0,0-13.42,1.09-27.68-7.87c0,0,6.54,15.28,27.73,13.37L169.96,129.31z"/>
													</g>
												</g>
											</g>
										</g>
									</g>
								</g>
							</g>
						</g>
					</g>
					<g>
						<g>
							<g>
								<g>
									<g>
										<g>
											<g>
												<path class="st9" d="M113.32,68.82c-0.36-0.16-14.59-4.32-14.13,10.2c0.46,14.52,14.94,11.06,14.95,10.64
													C114.16,89.25,113.32,68.82,113.32,68.82z"/>
											</g>
										</g>
									</g>
								</g>
							</g>
						</g>
						<g>
							<g>
								<g>
									<g>
										<g>
											<g>
												<g>
													<path class="st11" d="M109.54,84.31c-0.07-0.04-0.25,0.19-0.67,0.39c-0.41,0.2-1.12,0.36-1.89,0.1
														c-1.55-0.51-2.92-2.91-3.07-5.52c-0.08-1.32,0.16-2.59,0.59-3.64c0.41-1.08,1.07-1.84,1.84-2
														c0.76-0.2,1.32,0.24,1.51,0.65c0.21,0.4,0.12,0.69,0.2,0.71c0.04,0.04,0.3-0.25,0.17-0.85
														c-0.07-0.29-0.25-0.62-0.6-0.89c-0.36-0.27-0.87-0.4-1.41-0.32c-1.12,0.11-2.09,1.18-2.57,2.34
														c-0.54,1.17-0.84,2.59-0.75,4.07c0.19,2.92,1.77,5.61,3.89,6.15c1.03,0.23,1.87-0.1,2.3-0.46
														C109.52,84.66,109.59,84.33,109.54,84.31z"/>
												</g>
											</g>
										</g>
									</g>
								</g>
							</g>
						</g>
					</g>
					<g>
						<g>
							<g>
								<g>
									<g>
										<g>
											<g>
												<g>
													<g>
														<g>
															<g>
																<g>
																	<path class="st12" d="M181.04,70.9c0.06,1.6-1.25,2.97-2.92,3.06c-1.67,0.09-3.07-1.13-3.13-2.73
																		c-0.06-1.6,1.25-2.97,2.92-3.06C179.58,68.07,180.98,69.29,181.04,70.9z"/>
																</g>
															</g>
														</g>
													</g>
												</g>
											</g>
											<g>
												<g>
													<g>
														<g>
															<g>
																<g>
																	<g>
																		<path class="st4" d="M183.98,64.96c-0.38,0.4-2.67-1.3-5.94-1.3c-3.26-0.04-5.65,1.64-6.01,1.24
																			c-0.17-0.18,0.21-0.89,1.25-1.65c1.03-0.76,2.78-1.49,4.81-1.48c2.03,0.01,3.74,0.76,4.72,1.53
																			C183.83,64.06,184.17,64.78,183.98,64.96z"/>
																	</g>
																</g>
															</g>
														</g>
													</g>
												</g>
											</g>
										</g>
										<g>
											<g>
												<g>
													<g>
														<g>
															<g>
																<g>
																	<path class="st12" d="M148.34,71.27c0.06,1.6-1.25,2.97-2.92,3.06c-1.67,0.09-3.07-1.13-3.13-2.73
																		c-0.06-1.6,1.25-2.97,2.92-3.06C146.88,68.44,148.28,69.67,148.34,71.27z"/>
																</g>
															</g>
														</g>
													</g>
												</g>
											</g>
											<g>
												<g>
													<g>
														<g>
															<g>
																<g>
																	<g>
																		<path class="st4" d="M151.91,65.56c-0.38,0.4-2.68-1.3-5.94-1.3c-3.26-0.04-5.65,1.64-6.01,1.24
																			c-0.17-0.18,0.21-0.89,1.25-1.65c1.03-0.76,2.78-1.49,4.81-1.48c2.03,0.01,3.74,0.76,4.73,1.53
																			C151.75,64.67,152.09,65.39,151.91,65.56z"/>
																	</g>
																</g>
															</g>
														</g>
													</g>
												</g>
											</g>
										</g>
										<g>
											<g>
												<g>
													<g>
														<g>
															<g>
																<g>
																	<path class="st4" d="M163.75,89.76c-0.02-0.19,2.01-0.54,5.3-0.96c0.83-0.09,1.62-0.25,1.76-0.82
																		c0.2-0.6-0.15-1.5-0.56-2.47c-0.78-2.02-1.6-4.13-2.46-6.34c-3.42-9.03-5.9-16.46-5.53-16.6
																		c0.37-0.13,3.43,7.08,6.86,16.11c0.82,2.23,1.61,4.35,2.36,6.38c0.32,0.95,0.86,2.02,0.43,3.27
																		c-0.22,0.62-0.84,1.07-1.37,1.22c-0.53,0.16-1,0.17-1.42,0.2C165.82,89.93,163.76,89.95,163.75,89.76z"/>
																</g>
															</g>
														</g>
													</g>
												</g>
											</g>
										</g>
										<g>
											<g>
												<g>
													<g>
														<g>
															<g>
																<g>
																	<path class="st4" d="M154.15,92.02c0.53-0.03,0.54,3.51,3.57,6.03c3.03,2.52,6.8,2.12,6.83,2.62
																		c0.05,0.22-0.84,0.69-2.43,0.73c-1.56,0.05-3.85-0.45-5.7-1.99c-1.85-1.54-2.64-3.6-2.77-5.05
																		C153.51,92.88,153.91,92,154.15,92.02z"/>
																</g>
															</g>
														</g>
													</g>
												</g>
											</g>
										</g>
									</g>
								</g>
							</g>
							<g>
								<g>
									<g>
										<g>
											<g>
												<g>
													<path class="st4" d="M152.75,52.78c-0.32,0.89-3.58,0.47-7.41,0.93c-3.84,0.38-6.93,1.51-7.43,0.71
														c-0.23-0.38,0.31-1.22,1.56-2.07c1.24-0.86,3.21-1.67,5.51-1.93c2.3-0.25,4.4,0.11,5.8,0.68
														C152.18,51.66,152.89,52.36,152.75,52.78z"/>
												</g>
											</g>
										</g>
									</g>
								</g>
							</g>
							<g>
								<g>
									<g>
										<g>
											<g>
												<g>
													<path class="st4" d="M182.78,55.51c-0.57,0.74-2.82-0.03-5.53-0.06c-2.7-0.13-4.99,0.5-5.52-0.28
														c-0.23-0.38,0.13-1.12,1.13-1.82c0.99-0.7,2.63-1.27,4.49-1.21c1.86,0.06,3.47,0.73,4.41,1.49
														C182.72,54.39,183.04,55.15,182.78,55.51z"/>
												</g>
											</g>
										</g>
									</g>
								</g>
							</g>
						</g>
					</g>
				</g>
				<g>
					<g>
						<g>
							<g>
								<path class="st13" d="M198.35,21.68c0.23-2.63-0.75-5.46-2.89-7c-2.14-1.55-5.46-1.45-7.2,0.54c1-3.55-1.9-7.63-5.58-7.87
									c-3.46-0.22-6.42,2.4-9.76,3.31c-3.27,0.9-6.77,0.12-9.91-1.14c-3.14-1.27-6.08-3.01-9.26-4.17
									c-6.64-2.42-14.22-2.12-20.64,0.83c-6.42,2.95-11.6,8.5-14.08,15.12c-4.64-1.45-9.92,0.91-12.78,4.84
									c-2.86,3.93-3.6,9.1-3.03,13.93c0.38,3.27,1.33,6.42,2.43,9.53c0,0.27-0.03,0.54-0.02,0.81
									c0.22,11.68,1.54,25.39,6.52,25.46c8.68,0.13,6.61-16.22,6.61-16.22c10.66-4.12,6.69-20.08,9.35-22.5
									c2.66-2.42,8.24-8.05,30.55,3.35c8.66,4.43,20.18,4.29,26.47,2.86c0.18-0.04,0.37-0.07,0.56-0.11
									c0.04-0.01,0.09-0.02,0.13-0.03c0.07-0.02,0.12-0.06,0.18-0.07c2-0.52,3.94-1.3,5.72-2.43c2.02-1.28,3.86-3.01,4.72-5.24
									c0.86-2.23,0.53-5.02-1.22-6.65C196.83,26.76,198.12,24.31,198.35,21.68z"/>
							</g>
						</g>
					</g>
				</g>
			</g>
		</g>
	</g>
</g>
<g id="Device">
	<g>
		<g>
			<g>
				<g>
					<g>
						<g>
							<path class="st4" d="M499.96,401.86l-118.54-0.55c-14.26-0.06-25.76-11.67-25.7-25.93l1.26-297.19
								c0.06-14.27,11.68-25.78,25.94-25.71l118.54,0.55c14.26,0.07,25.76,11.67,25.7,25.93l-1.26,297.19
								C525.85,390.41,514.23,401.92,499.96,401.86z"/>
						</g>
						<g>
							<path class="st7" d="M501.29,63.28l-22.98-0.11c-3.08-0.01-5.59,2.59-5.61,5.81l-0.02,4.17c-0.01,3.22-2.52,5.82-5.6,5.81
								l-44.8-0.21c-3.08-0.01-5.57-2.64-5.56-5.86l0.02-4.17c0.01-3.22-2.47-5.85-5.56-5.86l-8.08-0.04l-20.12-0.09
								c-9.99-0.05-18.13,8.02-18.17,18.01l-1.23,290.08c-0.04,9.99,8.02,18.12,18,18.16l118.31,0.55
								c9.99,0.05,18.12-8.02,18.17-18.01l1.23-290.08C519.33,71.45,511.27,63.32,501.29,63.28z"/>
						</g>
					</g>
				</g>
			</g>
		</g>
		<g>
			<path class="st14" d="M392.54,109.14c0,3.14-2.55,5.69-5.69,5.69c-3.14,0-5.69-2.55-5.69-5.69c0-3.14,2.55-5.69,5.69-5.69
				C390,103.46,392.54,106,392.54,109.14z"/>
			<g>
				<path class="st14" d="M403.15,104.87h95.4c2.92,0,5.28,2.36,5.28,5.28v14.45c0,2.92-2.36,5.28-5.28,5.28H413.1
					c-2.92,0-5.28-2.36-5.28-5.28v-15.52L403.15,104.87z"/>
				<g>
					<g>
						<g>
							<g>
								<path class="st15" d="M488.53,113.84c0,0.13-14.65,0.24-32.71,0.24c-18.07,0-32.72-0.11-32.72-0.24s14.64-0.24,32.72-0.24
									C473.88,113.6,488.53,113.71,488.53,113.84z"/>
							</g>
						</g>
					</g>
					<g>
						<g>
							<g>
								<path class="st15" d="M488.53,119.73c0,0.13-14.65,0.24-32.71,0.24c-18.07,0-32.72-0.11-32.72-0.24s14.64-0.24,32.72-0.24
									C473.88,119.49,488.53,119.6,488.53,119.73z"/>
							</g>
						</g>
					</g>
				</g>
			</g>
		</g>
		<g>
			<path class="st14" d="M392.54,249.02c0,3.14-2.55,5.69-5.69,5.69c-3.14,0-5.69-2.55-5.69-5.69c0-3.14,2.55-5.69,5.69-5.69
				C390,243.34,392.54,245.88,392.54,249.02z"/>
			<g>
				<path class="st14" d="M403.15,244.75h95.4c2.92,0,5.28,2.36,5.28,5.28v14.45c0,2.92-2.36,5.28-5.28,5.28H413.1
					c-2.92,0-5.28-2.36-5.28-5.28v-15.52L403.15,244.75z"/>
				<g>
					<g>
						<g>
							<g>
								<path class="st15" d="M488.53,253.71c0,0.13-14.65,0.24-32.71,0.24c-18.07,0-32.72-0.11-32.72-0.24
									c0-0.13,14.64-0.24,32.72-0.24C473.88,253.48,488.53,253.58,488.53,253.71z"/>
							</g>
						</g>
					</g>
					<g>
						<g>
							<g>
								<path class="st15" d="M488.53,259.6c0,0.13-14.65,0.24-32.71,0.24c-18.07,0-32.72-0.11-32.72-0.24
									c0-0.13,14.64-0.24,32.72-0.24C473.88,259.37,488.53,259.47,488.53,259.6z"/>
							</g>
						</g>
					</g>
				</g>
			</g>
		</g>
		<g>
			<circle class="st10" cx="492.38" cy="152.85" r="5.59"/>
			<g>
				<path class="st10" d="M478.91,145h-89.35c-2.73,0-4.94,2.21-4.94,4.94v13.54c0,2.73,2.21,4.94,4.94,4.94h80.03
					c2.73,0,4.94-2.21,4.94-4.94v-14.54L478.91,145z"/>
				<g>
					<g>
						<g>
							<g>
								<path class="st15" d="M398.94,153.4c0-0.13,13.72-0.24,30.64-0.24c16.93,0,30.64,0.11,30.64,0.24
									c0,0.13-13.72,0.24-30.64,0.24C412.66,153.64,398.94,153.53,398.94,153.4z"/>
							</g>
						</g>
					</g>
					<g>
						<g>
							<g>
								<path class="st15" d="M398.94,158.92c0-0.13,13.72-0.24,30.64-0.24c16.93,0,30.64,0.11,30.64,0.24s-13.72,0.24-30.64,0.24
									C412.66,159.15,398.94,159.05,398.94,158.92z"/>
							</g>
						</g>
					</g>
				</g>
			</g>
		</g>
		<g>
			<path class="st4" d="M381.17,192.22c0,3.14,2.55,5.69,5.69,5.69c3.14,0,5.69-2.55,5.69-5.69c0-3.14-2.55-5.69-5.69-5.69
				C383.72,186.54,381.17,189.08,381.17,192.22z"/>
			<g>
				<path class="st4" d="M406.69,183.99h89.35c2.73,0,4.94,2.21,4.94,4.94v13.54c0,2.73-2.21,4.94-4.94,4.94h-80.03
					c-2.73,0-4.94-2.21-4.94-4.94v-14.54L406.69,183.99z"/>
				<g>
					<g>
						<g>
							<g>
								<path class="st15" d="M486.66,192.39c0,0.13-13.72,0.24-30.64,0.24c-16.93,0-30.64-0.11-30.64-0.24
									c0-0.13,13.72-0.24,30.64-0.24C472.94,192.15,486.66,192.26,486.66,192.39z"/>
							</g>
						</g>
					</g>
					<g>
						<g>
							<g>
								<path class="st15" d="M486.66,197.9c0,0.13-13.72,0.24-30.64,0.24c-16.93,0-30.64-0.11-30.64-0.24
									c0-0.13,13.72-0.24,30.64-0.24C472.94,197.66,486.66,197.77,486.66,197.9z"/>
							</g>
						</g>
					</g>
				</g>
			</g>
			<g>
				<g>
					<g>
						<path class="st4" d="M493.45,233.59h-20.87c-2.21,0-3.99-1.79-3.99-3.99v-7.1c0-2.21,1.79-3.99,3.99-3.99h20.87
							c2.21,0,3.99,1.79,3.99,3.99v7.1C497.44,231.8,495.65,233.59,493.45,233.59z"/>
					</g>
				</g>
				<g>
					<g>
						<g>
							<path class="st15" d="M492.3,226.04c0,0.13-3.79,0.24-8.47,0.24c-4.68,0-8.47-0.11-8.47-0.24c0-0.13,3.79-0.24,8.47-0.24
								C488.51,225.81,492.3,225.91,492.3,226.04z"/>
						</g>
					</g>
				</g>
			</g>
		</g>
		<g>
			<g>
				<g>
					<rect x="374.51" y="318.82" class="st3" width="14.13" height="14.13"/>
				</g>
			</g>
			<g>
				<g>
					<rect x="391.32" y="318.82" class="st3" width="14.13" height="14.13"/>
				</g>
			</g>
			<g>
				<g>
					<rect x="408.13" y="318.82" class="st3" width="14.13" height="14.13"/>
				</g>
			</g>
			<g>
				<g>
					<rect x="424.93" y="318.82" class="st3" width="14.13" height="14.13"/>
				</g>
			</g>
			<g>
				<g>
					<rect x="441.74" y="318.82" class="st3" width="14.13" height="14.13"/>
				</g>
			</g>
			<g>
				<g>
					<rect x="374.51" y="353.68" class="st3" width="14.77" height="14.77"/>
				</g>
			</g>
			<g>
				<g>
					<rect x="392.08" y="353.71" class="st3" width="71.25" height="14.77"/>
				</g>
			</g>
			<g>
				<g>
					<g>
						<path class="st4" d="M506.47,314.71c0,0-0.01-0.37-0.02-1.07c-0.01-0.71-0.01-1.75-0.03-3.12c-0.01-2.75-0.03-6.8-0.06-12.08
							l0.11,0.11c-23.89,0.02-74.04,0.07-131.95,0.13h-0.01l0.24-0.24c0,5.57,0,11.07,0,16.27l-0.24-0.24
							c37.13,0.04,70.08,0.08,93.77,0.1c11.85,0.03,21.38,0.05,27.97,0.07c3.28,0.01,5.83,0.03,7.57,0.03
							c0.86,0.01,1.51,0.01,1.97,0.02C506.23,314.7,506.47,314.71,506.47,314.71s-0.21,0.01-0.65,0.02c-0.45,0-1.1,0.01-1.94,0.02
							c-1.73,0.01-4.26,0.02-7.52,0.03c-6.57,0.02-16.08,0.04-27.91,0.07c-23.73,0.03-56.74,0.06-93.94,0.1l-0.24,0v-0.24
							c0-5.19,0-10.69,0-16.27l0-0.24h0.24h0.01c57.91,0.06,108.06,0.11,131.95,0.13l0.11,0l0,0.11c-0.03,5.3-0.05,9.38-0.06,12.14
							c-0.01,1.36-0.02,2.39-0.03,3.1C506.48,314.37,506.47,314.71,506.47,314.71z"/>
					</g>
				</g>
			</g>
			<g>
				<g>
					<g>
						<path class="st14" d="M497.68,308.05h-1.46c-0.53,0-0.96-0.43-0.96-0.96v-4.8c0-0.53,0.43-0.96,0.96-0.96h1.46
							c0.53,0,0.96,0.43,0.96,0.96v4.8C498.64,307.62,498.21,308.05,497.68,308.05z"/>
					</g>
				</g>
				<g>
					<g>
						<g>
							<path class="st14" d="M501.05,306.72c0,0.05-0.4,0.1-1.08,0.14l0.13-0.12c-0.04,0.57-0.18,1.33-0.68,2.09
								c-0.25,0.38-0.61,0.74-1.08,0.98c-0.47,0.24-1.02,0.32-1.57,0.3c-1.08-0.02-2-0.67-2.49-1.37c-0.5-0.71-0.73-1.42-0.83-1.98
								l0.14,0.12c-0.79-0.04-1.24-0.09-1.24-0.14c0-0.05,0.46-0.1,1.24-0.14l0.11-0.01l0.03,0.12c0.14,0.5,0.41,1.16,0.89,1.78
								c0.48,0.61,1.25,1.13,2.18,1.15c0.48,0.02,0.95-0.04,1.35-0.24c0.39-0.19,0.71-0.48,0.94-0.8c0.47-0.65,0.67-1.36,0.76-1.87
								l0.02-0.13l0.11,0.01C500.65,306.63,501.05,306.67,501.05,306.72z"/>
						</g>
					</g>
				</g>
				<g>
					<g>
						<g>
							<path class="st14" d="M496.95,309.88c0.13,0,0.24,0.46,0.24,1.04c0,0.57-0.11,1.04-0.24,1.04s-0.24-0.46-0.24-1.04
								C496.71,310.34,496.82,309.88,496.95,309.88z"/>
						</g>
					</g>
				</g>
			</g>
			<g>
				<g>
					<rect x="465.74" y="353.68" class="st3" width="14.77" height="14.77"/>
				</g>
			</g>
			<g>
				<g>
					<rect x="483.31" y="353.68" class="st14" width="23.16" height="14.77"/>
				</g>
			</g>
			<g>
				<g>
					<rect x="458.72" y="318.82" class="st3" width="14.13" height="14.13"/>
				</g>
			</g>
			<g>
				<g>
					<rect x="475.53" y="318.82" class="st3" width="14.13" height="14.13"/>
				</g>
			</g>
			<g>
				<g>
					<rect x="492.34" y="318.82" class="st3" width="14.13" height="14.13"/>
				</g>
			</g>
			<g>
				<g>
					<rect x="374.51" y="336.25" class="st3" width="14.13" height="14.13"/>
				</g>
			</g>
			<g>
				<g>
					<rect x="391.32" y="336.25" class="st3" width="14.13" height="14.13"/>
				</g>
			</g>
			<g>
				<g>
					<rect x="408.13" y="336.25" class="st3" width="14.13" height="14.13"/>
				</g>
			</g>
			<g>
				<g>
					<rect x="424.93" y="336.25" class="st3" width="14.13" height="14.13"/>
				</g>
			</g>
			<g>
				<g>
					<rect x="441.74" y="336.25" class="st3" width="14.13" height="14.13"/>
				</g>
			</g>
			<g>
				<g>
					<rect x="458.72" y="336.25" class="st3" width="14.13" height="14.13"/>
				</g>
			</g>
			<g>
				<g>
					<rect x="475.53" y="336.25" class="st3" width="14.13" height="14.13"/>
				</g>
			</g>
			<g>
				<g>
					<rect x="492.34" y="336.25" class="st3" width="14.13" height="14.13"/>
				</g>
			</g>
		</g>
		<g>
			<g>
				<path class="st14" d="M437.8,286.22c-0.01,1.33-1.1,2.41-2.45,2.41c-1.35-0.01-2.44-1.09-2.43-2.43
					c0.01-1.33,1.1-2.41,2.45-2.41C436.72,283.8,437.81,284.89,437.8,286.22z"/>
			</g>
			<g>
				<path class="st14" d="M445.37,286.26c-0.01,1.33-1.1,2.41-2.45,2.41c-1.35-0.01-2.44-1.09-2.43-2.43
					c0.01-1.33,1.1-2.41,2.45-2.41C444.28,283.84,445.37,284.92,445.37,286.26z"/>
			</g>
			<g>
				<path class="st14" d="M452.93,286.29c-0.01,1.33-1.1,2.41-2.45,2.41c-1.35-0.01-2.44-1.09-2.43-2.43
					c0.01-1.33,1.1-2.41,2.45-2.41C451.85,283.87,452.94,284.96,452.93,286.29z"/>
			</g>
		</g>
	</g>
</g>
</svg>
